<svg width="81" height="28" viewBox="0 0 81 28" fill="none" xmlns="http://www.w3.org/2000/svg">
<g clip-path="url(#clip0_2019_49456)">
<path d="M9.62417 11.7536V14.0674H14.7283V17.4951H9.62417V21.809H5.5V8.33203H15.4458V11.7536H9.62417Z" fill="#FA541C"/>
<path d="M20.5742 11.2734H16.625V21.8088H20.5742V11.2734Z" fill="#FA541C"/>
<path d="M20.9729 8.13538C20.9729 8.80615 20.7571 9.35385 20.3254 9.79077C19.8938 10.2154 19.3221 10.4308 18.5987 10.4308C17.8754 10.4308 17.2979 10.2154 16.8663 9.79077C16.4346 9.37231 16.2188 8.84308 16.2188 8.21538C16.2188 7.58769 16.4346 7.05846 16.8663 6.63385C17.2979 6.20923 17.8754 6 18.5987 6C19.3221 6 19.8938 6.19692 20.3254 6.59692C20.7571 6.99692 20.9729 7.50769 20.9729 8.13538Z" fill="#FA541C"/>
<path d="M29.369 21.4397C29.0656 21.6366 28.6981 21.7781 28.2665 21.8643C27.8465 21.9566 27.4031 21.9997 26.9365 21.9997C25.624 21.9997 24.5973 21.6551 23.8623 20.9597C23.1273 20.252 22.7598 19.1751 22.7598 17.7228V15.0274H21.4531V11.852H22.7598V8.9043H26.709V11.852H28.669V15.0274H26.709V17.6858C26.709 18.0058 26.7848 18.2581 26.9365 18.4366C27.0998 18.6151 27.2981 18.7074 27.5315 18.7074C27.8698 18.7074 28.1673 18.6089 28.424 18.4181L29.369 21.4397Z" fill="#FA541C"/>
<path d="M30.4844 21.809V8.33203H34.6085V18.289H40.1327V21.8151H30.4844V21.809Z" fill="#FA541C"/>
<path d="M49.4149 12.2953C48.5166 11.4892 47.2507 11.083 45.6057 11.083C44.8591 11.083 44.0949 11.1876 43.3132 11.3907C42.5374 11.5938 41.8666 11.8892 41.3066 12.2769L42.5666 15.1445C42.8816 14.8861 43.2549 14.6892 43.6982 14.5476C44.1416 14.3938 44.5791 14.3199 45.0107 14.3199C45.6524 14.3199 46.1132 14.4553 46.3932 14.7199C46.6149 14.9292 46.7549 15.2061 46.8016 15.5507H45.2207C44.2291 15.5507 43.4066 15.6738 42.7591 15.9138C42.1174 16.1599 41.6391 16.5169 41.3241 16.9969C41.0091 17.4707 40.8516 18.0492 40.8516 18.7261C40.8516 19.3292 40.9857 19.883 41.2541 20.3815C41.5224 20.8676 41.9191 21.2615 42.4441 21.5569C42.9691 21.8522 43.6166 21.9999 44.3982 21.9999C45.2266 21.9999 45.8857 21.8092 46.3757 21.4215C46.6907 21.1753 46.9357 20.8492 47.1107 20.4369V21.8092H50.7799V16.1476C50.7799 14.3876 50.3249 13.1076 49.4149 12.2953ZM46.3232 19.1507C46.1016 19.3045 45.8566 19.3784 45.5882 19.3784C45.2966 19.3784 45.0632 19.3045 44.8882 19.1507C44.7249 18.9845 44.6432 18.7753 44.6432 18.5353C44.6432 18.2399 44.7366 18.0184 44.9232 17.8769C45.1216 17.723 45.4307 17.6492 45.8507 17.6492H46.8307V18.3815C46.7257 18.7261 46.5566 18.9845 46.3232 19.1507Z" fill="#FA541C"/>
<path d="M58.1162 14.7565C58.0521 14.7442 57.9879 14.738 57.9179 14.738C57.6496 14.738 57.3988 14.8119 57.1654 14.9534C57.1188 14.978 57.0721 15.015 57.0312 15.0457C57.1304 14.7626 57.3754 14.5596 57.6613 14.5596C57.8363 14.5596 57.9996 14.6334 58.1162 14.7565Z" fill="#FA541C"/>
<path d="M62.463 13.1076C62.1247 12.4122 61.658 11.9015 61.063 11.5815C60.4739 11.2492 59.8089 11.083 59.0739 11.083C58.2922 11.083 57.5805 11.2799 56.9389 11.6799C56.6647 11.8522 56.4139 12.0676 56.1922 12.3199V11.2738H52.4297V21.8092H56.3847C56.2897 21.8092 56.6441 21.8092 56.7725 21.8092H58.4803C58.6903 21.8092 59.1014 21.8092 59.0389 21.8092H62.988V15.803C62.988 14.6953 62.813 13.7969 62.463 13.1076ZM59.628 20.3999C59.628 20.4369 59.628 20.4738 59.6222 20.5107H55.5972C55.5972 20.4738 55.5972 20.4369 55.5972 20.3999V15.6122C55.5972 15.2738 55.7314 14.9538 55.9647 14.7199L56.8164 13.8707C57.2655 13.4215 57.9714 13.4215 58.4205 13.8707L59.2722 14.7199C59.5055 14.9538 59.6339 15.2738 59.6339 15.6122V20.3999H59.628Z" fill="#FA541C"/>
<path d="M71.5545 7.51953V12.0057C71.4378 11.8826 71.3153 11.7718 71.187 11.6795C70.6503 11.2795 69.962 11.0826 69.122 11.0826C68.282 11.0826 67.5295 11.298 66.8178 11.7349C66.1178 12.1718 65.5578 12.8057 65.1378 13.6241C64.7178 14.4303 64.5078 15.4026 64.5078 16.5288C64.5078 17.6549 64.7178 18.6395 65.1378 19.458C65.5578 20.2641 66.1178 20.898 66.8178 21.3472C67.5295 21.7841 68.2995 21.9995 69.122 21.9995C70.0086 21.9995 70.7145 21.8088 71.2395 21.4211C71.4261 21.2857 71.5953 21.1257 71.747 20.9411V21.8088H75.5036V7.51953H71.5545ZM71.4145 17.6857C71.2745 17.9934 71.0878 18.2272 70.8545 18.3811C70.6211 18.5349 70.3586 18.6088 70.067 18.6088C69.7753 18.6088 69.5128 18.5349 69.2795 18.3811C69.0461 18.2272 68.8595 17.9934 68.7253 17.6857C68.5853 17.3657 68.5153 16.978 68.5153 16.5288C68.5153 16.0795 68.5853 15.6918 68.7253 15.3965C68.8595 15.0888 69.0461 14.8549 69.2795 14.7011C69.5128 14.5472 69.7753 14.4734 70.067 14.4734C70.3586 14.4734 70.6211 14.5472 70.8545 14.7011C71.0878 14.8549 71.2745 15.0888 71.4145 15.3965C71.5545 15.6918 71.6245 16.0672 71.6245 16.5288C71.6245 16.9903 71.5545 17.3657 71.4145 17.6857Z" fill="#FA541C"/>
<path d="M58.118 14.7565C58.0014 14.6334 57.838 14.5596 57.663 14.5596C57.3772 14.5596 57.1322 14.7626 57.033 15.0457C57.0097 15.1257 56.9922 15.2119 56.9922 15.3042C56.9922 15.7103 57.2955 16.0488 57.663 16.0488C58.0305 16.0488 58.3397 15.7103 58.3397 15.3042C58.3397 15.0888 58.2522 14.8919 58.118 14.7565Z" fill="#EDEDEE" stroke="#FA541C"/>
<path d="M58.3397 15.3042C58.3397 15.7103 58.0364 16.0488 57.663 16.0488C57.2897 16.0488 56.9922 15.7103 56.9922 15.3042C56.9922 15.2119 57.0097 15.1257 57.033 15.0457C57.1322 14.7626 57.3772 14.5596 57.663 14.5596C57.838 14.5596 58.0014 14.6334 58.118 14.7565C58.2522 14.8919 58.3397 15.0888 58.3397 15.3042Z" fill="#FA541C"/>
</g>
<defs>
<clipPath id="clip0_2019_49456">
<rect width="70" height="16" fill="white" transform="translate(5.5 6)"/>
</clipPath>
</defs>
</svg>
