<svg width="151" height="58" viewBox="0 0 151 58" fill="none" xmlns="http://www.w3.org/2000/svg">
<g clip-path="url(#clip0_4003_13477)">
<path d="M9.07969 11.5071V16.1348H20.0172V22.9902H9.07969V31.6179H0.242188V4.66406H21.5547V11.5071H9.07969Z" fill="#FA541C"/>
<path d="M32.5406 10.5469H24.0781V31.6176H32.5406V10.5469Z" fill="#FA541C"/>
<path d="M33.4063 4.27077C33.4063 5.61231 32.9438 6.70769 32.0188 7.58154C31.0938 8.43077 29.8688 8.86154 28.3187 8.86154C26.7687 8.86154 25.5313 8.43077 24.6063 7.58154C23.6813 6.74461 23.2188 5.68615 23.2188 4.43077C23.2188 3.17538 23.6813 2.11692 24.6063 1.26769C25.5313 0.418461 26.7687 0 28.3187 0C29.8688 0 31.0938 0.393846 32.0188 1.19385C32.9438 1.99385 33.4063 3.01538 33.4063 4.27077Z" fill="#FA541C"/>
<path d="M51.3922 30.8794C50.7422 31.2732 49.9547 31.5563 49.0297 31.7286C48.1297 31.9132 47.1797 31.9994 46.1797 31.9994C43.3672 31.9994 41.1672 31.3101 39.5922 29.9194C38.0172 28.504 37.2297 26.3501 37.2297 23.4455V18.0547H34.4297V11.704H37.2297V5.80859H45.6922V11.704H49.8922V18.0547H45.6922V23.3717C45.6922 24.0117 45.8547 24.5163 46.1797 24.8732C46.5297 25.2301 46.9547 25.4147 47.4547 25.4147C48.1797 25.4147 48.8172 25.2178 49.3672 24.8363L51.3922 30.8794Z" fill="#FA541C"/>
<path d="M53.7812 31.6179V4.66406H62.6187V24.5779H74.4562V31.6302H53.7812V31.6179Z" fill="#FA541C"/>
<path d="M94.3422 12.5906C92.4172 10.9783 89.7047 10.166 86.1797 10.166C84.5797 10.166 82.9422 10.3752 81.2672 10.7814C79.6047 11.1876 78.1672 11.7783 76.9672 12.5537L79.6672 18.2891C80.3422 17.7722 81.1422 17.3783 82.0922 17.0952C83.0422 16.7876 83.9797 16.6399 84.9047 16.6399C86.2797 16.6399 87.2672 16.9106 87.8672 17.4399C88.3422 17.8583 88.6422 18.4122 88.7422 19.1014H85.3547C83.2297 19.1014 81.4672 19.3476 80.0797 19.8276C78.7047 20.3199 77.6797 21.0337 77.0047 21.9937C76.3297 22.9414 75.9922 24.0983 75.9922 25.4522C75.9922 26.6583 76.2797 27.766 76.8547 28.7629C77.4297 29.7352 78.2797 30.5229 79.4047 31.1137C80.5297 31.7045 81.9172 31.9999 83.5922 31.9999C85.3672 31.9999 86.7797 31.6183 87.8297 30.8429C88.5047 30.3506 89.0297 29.6983 89.4047 28.8737V31.6183H97.2672V20.2952C97.2672 16.7752 96.2922 14.2152 94.3422 12.5906ZM87.7172 26.3014C87.2422 26.6091 86.7172 26.7568 86.1422 26.7568C85.5172 26.7568 85.0172 26.6091 84.6422 26.3014C84.2922 25.9691 84.1172 25.5506 84.1172 25.0706C84.1172 24.4799 84.3172 24.0368 84.7172 23.7537C85.1422 23.446 85.8047 23.2983 86.7047 23.2983H88.8047V24.7629C88.5797 25.4522 88.2172 25.9691 87.7172 26.3014Z" fill="#FA541C"/>
<path d="M112.997 17.513C112.859 17.4884 112.722 17.4761 112.572 17.4761C111.997 17.4761 111.459 17.6238 110.959 17.9068C110.859 17.9561 110.759 18.0299 110.672 18.0914C110.884 17.5253 111.409 17.1191 112.022 17.1191C112.397 17.1191 112.747 17.2668 112.997 17.513Z" fill="#FA541C"/>
<path d="M122.312 14.2152C121.587 12.8245 120.587 11.8029 119.312 11.1629C118.05 10.4983 116.625 10.166 115.05 10.166C113.375 10.166 111.85 10.5599 110.475 11.3599C109.887 11.7045 109.35 12.1352 108.875 12.6399V10.5476H100.812V31.6183H109.287C109.084 31.6183 109.843 31.6183 110.118 31.6183H113.778C114.228 31.6183 115.109 31.6183 114.975 31.6183H123.437V19.606C123.437 17.3906 123.062 15.5937 122.312 14.2152ZM116.237 28.7999C116.237 28.8737 116.238 28.9476 116.225 29.0214H107.6C107.6 28.9476 107.6 28.8737 107.6 28.7999V19.2245C107.6 18.5476 107.887 17.9076 108.387 17.4399L110.212 15.7414C111.175 14.8429 112.687 14.8429 113.65 15.7414L115.475 17.4399C115.975 17.9076 116.25 18.5476 116.25 19.2245V28.7999H116.237Z" fill="#FA541C"/>
<path d="M141.78 3.03906V12.0114C141.53 11.7652 141.267 11.5437 140.992 11.3591C139.842 10.5591 138.367 10.1652 136.567 10.1652C134.767 10.1652 133.155 10.596 131.63 11.4698C130.13 12.3437 128.93 13.6114 128.03 15.2483C127.13 16.8606 126.68 18.8052 126.68 21.0575C126.68 23.3098 127.13 25.2791 128.03 26.916C128.93 28.5283 130.13 29.796 131.63 30.6945C133.155 31.5683 134.805 31.9991 136.567 31.9991C138.467 31.9991 139.98 31.6175 141.105 30.8421C141.505 30.5714 141.867 30.2514 142.192 29.8821V31.6175H150.242V3.03906H141.78ZM141.48 23.3714C141.18 23.9868 140.78 24.4545 140.28 24.7621C139.78 25.0698 139.217 25.2175 138.592 25.2175C137.967 25.2175 137.405 25.0698 136.905 24.7621C136.405 24.4545 136.005 23.9868 135.717 23.3714C135.417 22.7314 135.267 21.956 135.267 21.0575C135.267 20.1591 135.417 19.3837 135.717 18.7929C136.005 18.1775 136.405 17.7098 136.905 17.4021C137.405 17.0944 137.967 16.9468 138.592 16.9468C139.217 16.9468 139.78 17.0944 140.28 17.4021C140.78 17.7098 141.18 18.1775 141.48 18.7929C141.78 19.3837 141.93 20.1344 141.93 21.0575C141.93 21.9806 141.78 22.7314 141.48 23.3714Z" fill="#FA541C"/>
<path d="M112.991 17.513C112.741 17.2668 112.391 17.1191 112.016 17.1191C111.403 17.1191 110.878 17.5253 110.666 18.0914C110.616 18.2514 110.578 18.4238 110.578 18.6084C110.578 19.4207 111.228 20.0976 112.016 20.0976C112.803 20.0976 113.466 19.4207 113.466 18.6084C113.466 18.1776 113.278 17.7838 112.991 17.513Z" fill="#EDEDEE" stroke="#FA541C"/>
<path d="M113.466 18.6084C113.466 19.4207 112.816 20.0976 112.016 20.0976C111.216 20.0976 110.578 19.4207 110.578 18.6084C110.578 18.4238 110.616 18.2514 110.666 18.0914C110.878 17.5253 111.403 17.1191 112.016 17.1191C112.391 17.1191 112.741 17.2668 112.991 17.513C113.278 17.7838 113.466 18.1776 113.466 18.6084Z" fill="#FA541C"/>
</g>
<path d="M18.367 52C18.0149 52 17.6989 51.936 17.4189 51.808C17.1469 51.672 16.8989 51.472 16.6749 51.208C16.0909 51.776 15.3669 52.06 14.5029 52.06C13.5269 52.06 12.6109 51.74 11.7549 51.1L12.4029 49.84C12.6589 49.976 12.9389 50.1 13.2429 50.212C13.5469 50.316 13.9069 50.368 14.3229 50.368C14.9549 50.368 15.5029 50.22 15.9669 49.924L14.3229 46.168L15.5589 45.496L17.2029 49.384C17.3309 49.704 17.4789 49.924 17.647 50.044C17.8149 50.156 18.0549 50.212 18.367 50.212H18.5229L18.6189 51.112L18.5229 52H18.367ZM18.3913 50.212H18.4633C19.0713 50.212 19.5113 50.148 19.7833 50.02C20.0633 49.892 20.2233 49.684 20.2633 49.396C20.2793 49.268 20.2873 49.168 20.2873 49.096C20.2873 48.904 20.2673 48.684 20.2273 48.436C20.1873 48.18 20.1633 48.02 20.1553 47.956L21.4033 47.716C21.5073 48.308 21.5593 48.968 21.5593 49.696C21.5913 49.832 21.6793 49.952 21.8233 50.056C21.9753 50.16 22.1873 50.212 22.4593 50.212H22.5313L22.6273 51.112L22.5313 52H22.4593C22.1393 52 21.8393 51.924 21.5593 51.772C21.2873 51.62 21.0553 51.42 20.8633 51.172C20.6313 51.46 20.3153 51.672 19.9153 51.808C19.5233 51.936 19.0393 52 18.4633 52H18.3913V50.212ZM19.9753 44.656L21.0793 45.76L19.9753 46.876C19.6073 46.5 19.2353 46.128 18.8593 45.76L19.9753 44.656ZM22.4109 50.212H22.7829C23.1989 50.212 23.4989 50.128 23.6829 49.96C23.8749 49.792 23.9709 49.532 23.9709 49.18C23.9629 48.628 23.9149 47.656 23.8269 46.264C23.7469 44.864 23.6749 43.924 23.6109 43.444L25.1109 43.12C25.1669 43.592 25.2269 44.564 25.2909 46.036C25.3629 47.5 25.3989 48.516 25.3989 49.084C25.3989 49.628 25.2869 50.124 25.0629 50.572C24.8469 51.012 24.5429 51.36 24.1509 51.616C23.7589 51.872 23.3149 52 22.8189 52H22.4109V50.212ZM31.029 52.144C29.613 52.144 28.501 51.924 27.693 51.484C26.885 51.044 26.445 50.432 26.373 49.648C26.365 49.584 26.361 49.488 26.361 49.36C26.361 49.016 26.409 48.644 26.505 48.244C26.601 47.844 26.717 47.488 26.853 47.176L28.005 47.728C27.773 48.456 27.669 48.98 27.693 49.3C27.749 49.604 28.069 49.856 28.653 50.056C29.237 50.248 30.037 50.348 31.053 50.356C32.085 50.348 32.885 50.28 33.453 50.152C34.021 50.016 34.457 49.8 34.761 49.504C35.065 49.208 35.321 48.78 35.529 48.22L36.777 48.364C36.625 48.836 36.549 49.196 36.549 49.444C36.549 49.716 36.613 49.912 36.741 50.032C36.877 50.152 37.077 50.212 37.341 50.212L37.437 51.112L37.341 52C36.893 52 36.497 51.872 36.153 51.616C35.817 51.352 35.613 51.008 35.541 50.584C35.045 51.168 34.437 51.576 33.717 51.808C33.005 52.032 32.109 52.144 31.029 52.144ZM30.393 45.952L31.401 46.96L30.393 47.98L29.373 46.96L30.393 45.952ZM32.505 45.952L33.513 46.96L32.505 47.98L31.485 46.96L32.505 45.952ZM37.2354 50.212H37.3074C38.0274 50.212 38.5634 50.176 38.9154 50.104C39.2674 50.024 39.4994 49.908 39.6114 49.756C39.7234 49.604 39.7794 49.384 39.7794 49.096C39.7794 48.864 39.7394 48.484 39.6594 47.956L40.8954 47.716C41.0074 48.3 41.0634 48.96 41.0634 49.696C41.0954 49.832 41.1834 49.952 41.3274 50.056C41.4714 50.16 41.6834 50.212 41.9634 50.212H42.0234L42.1194 51.112L42.0234 52H41.9514C41.6314 52 41.3354 51.924 41.0634 51.772C40.7914 51.62 40.5594 51.42 40.3674 51.172C40.1354 51.468 39.7834 51.68 39.3114 51.808C38.8394 51.936 38.1714 52 37.3074 52H37.2234L37.2354 50.212ZM39.3234 55.036L38.3154 54.028L39.3234 53.008L39.6594 53.344L40.3434 54.028L39.3234 55.036ZM37.2114 55.036L36.2034 54.028L37.2114 53.008L37.5474 53.344L38.2314 54.028L37.2114 55.036ZM41.8991 50.212H42.0791C43.0311 50.212 43.7871 50.168 44.3471 50.08C44.9151 49.984 45.3351 49.816 45.6071 49.576C45.3831 49.592 45.2191 49.6 45.1151 49.6C44.5391 49.6 44.0271 49.5 43.5791 49.3C43.1391 49.1 42.8231 48.808 42.6311 48.424C42.4871 48.112 42.4151 47.768 42.4151 47.392C42.4151 46.936 42.5111 46.492 42.7031 46.06C42.8951 45.628 43.1631 45.276 43.5071 45.004C43.8511 44.724 44.2311 44.584 44.6471 44.584C45.1191 44.584 45.5431 44.772 45.9191 45.148C46.2951 45.516 46.5871 46.004 46.7951 46.612C47.0111 47.22 47.1191 47.864 47.1191 48.544C47.1191 49.648 46.7031 50.5 45.8711 51.1C45.0471 51.7 43.7751 52 42.0551 52H41.8991V50.212ZM43.6871 42.352C43.9271 42.104 44.1711 41.86 44.4191 41.62C44.7951 41.98 45.1631 42.348 45.5231 42.724C45.2831 42.972 45.0391 43.216 44.7911 43.456L44.4191 43.828L43.3151 42.724L43.6871 42.352ZM43.6991 47.44C43.8191 47.592 44.0351 47.716 44.3471 47.812C44.6591 47.9 45.0111 47.944 45.4031 47.944C45.5071 47.944 45.6631 47.936 45.8711 47.92C45.7671 47.408 45.5911 46.98 45.3431 46.636C45.0951 46.284 44.8191 46.108 44.5151 46.108C44.2671 46.108 44.0551 46.22 43.8791 46.444C43.7031 46.66 43.6151 46.888 43.6151 47.128C43.6151 47.256 43.6431 47.36 43.6991 47.44ZM54.3168 55.468C53.5968 55.468 52.9528 55.332 52.3848 55.06C51.8168 54.788 51.3688 54.388 51.0408 53.86C50.7128 53.332 50.5488 52.696 50.5488 51.952C50.5488 51.464 50.6328 50.936 50.8008 50.368C50.9768 49.792 51.1728 49.28 51.3888 48.832L52.5408 49.36C52.3328 49.832 52.1728 50.248 52.0608 50.608C51.9488 50.968 51.8928 51.336 51.8928 51.712C51.8928 52.376 52.1008 52.868 52.5168 53.188C52.9328 53.516 53.5328 53.68 54.3168 53.68C54.7488 53.68 55.1568 53.632 55.5408 53.536C55.9328 53.44 56.2648 53.32 56.5368 53.176C56.8168 53.032 57.0088 52.888 57.1128 52.744C56.9688 52.608 56.6648 52.412 56.2008 52.156C55.7368 51.908 55.2568 51.692 54.7608 51.508L55.1328 49.828C55.8288 49.964 56.4328 50.064 56.9448 50.128C57.4568 50.184 57.9608 50.212 58.4568 50.212H58.6488L58.7448 51.112L58.6488 52H58.4568C58.3368 52 58.1568 51.992 57.9168 51.976C58.2128 52.272 58.3608 52.56 58.3608 52.84C58.3608 53.24 58.1808 53.644 57.8208 54.052C57.4608 54.46 56.9688 54.796 56.3448 55.06C55.7288 55.332 55.0528 55.468 54.3168 55.468ZM65.1652 52C64.7972 51.992 64.4772 51.9 64.2052 51.724C63.9412 51.548 63.7372 51.3 63.5932 50.98C63.1452 51.652 62.6132 51.992 61.9972 52H61.9372C61.5932 52 61.2932 51.908 61.0372 51.724C60.7812 51.54 60.6012 51.296 60.4972 50.992C60.2412 51.32 59.9452 51.572 59.6092 51.748C59.2812 51.916 58.9292 52 58.5532 52H58.5172L58.4212 51.112L58.5172 50.212H58.5772C58.8252 50.212 59.0692 50.16 59.3092 50.056C59.5492 49.944 59.7292 49.808 59.8492 49.648C60.0172 49.456 60.1452 49.24 60.2332 49C60.3212 48.76 60.4012 48.504 60.4732 48.232L61.7212 48.364C61.7132 48.404 61.6692 48.564 61.5892 48.844C61.5092 49.116 61.4692 49.364 61.4692 49.588C61.4692 50.004 61.6372 50.212 61.9732 50.212H61.9972C62.4132 50.212 62.7332 49.992 62.9572 49.552C63.1412 49.184 63.2732 48.716 63.3532 48.148L64.6012 48.208C64.5692 48.336 64.5372 48.52 64.5052 48.76C64.4812 48.992 64.4692 49.184 64.4692 49.336C64.4692 49.92 64.7092 50.212 65.1892 50.212H65.2012C65.4412 50.212 65.6252 50.144 65.7532 50.008C65.8892 49.872 65.9572 49.696 65.9572 49.48C65.9572 49.264 65.8732 48.92 65.7052 48.448C65.5452 47.976 65.4092 47.616 65.2972 47.368L66.5332 46.696C66.6852 47.024 66.8452 47.476 67.0132 48.052C67.1812 48.62 67.2652 49.12 67.2652 49.552C67.2652 49.992 67.1772 50.4 67.0012 50.776C66.8332 51.144 66.5932 51.44 66.2812 51.664C65.9692 51.888 65.6172 52 65.2252 52H65.1652ZM61.8412 45.484C62.2732 45.068 62.5932 44.752 62.8012 44.536L63.7612 45.484L62.8012 46.456L61.8412 45.484ZM65.0692 44.536C65.2772 44.752 65.4892 44.964 65.7052 45.172L66.0172 45.484L65.4532 46.072C65.1972 46.328 65.0692 46.456 65.0692 46.456L64.7452 46.132C64.3132 45.7 64.0972 45.484 64.0972 45.484L65.0692 44.536ZM63.9292 43.228C64.2012 43.516 64.4812 43.796 64.7692 44.068L63.9292 44.932L63.0772 44.068L63.9292 43.228ZM66.8966 53.992C67.4246 53.776 67.9086 53.524 68.3486 53.236C68.7886 52.956 69.1326 52.676 69.3806 52.396C69.6366 52.116 69.7646 51.876 69.7646 51.676C69.7646 51.348 69.5526 50.456 69.1286 49L69.0686 48.76L70.4126 48.232C70.6046 48.784 70.7566 49.376 70.8686 50.008C70.9806 50.632 71.0366 51.188 71.0366 51.676C71.0366 52.46 70.7286 53.184 70.1126 53.848C69.4966 54.52 68.6686 55.072 67.6286 55.504L66.8966 53.992ZM69.5486 44.932C69.7886 45.18 70.0326 45.424 70.2806 45.664L70.6526 46.036C70.4686 46.22 70.3766 46.312 70.3766 46.312C69.9126 46.776 69.6366 47.056 69.5486 47.152L68.4326 46.036L69.5486 44.932ZM71.3146 53.992C71.8426 53.776 72.3266 53.524 72.7666 53.236C73.2066 52.956 73.5506 52.676 73.7986 52.396C74.0546 52.116 74.1826 51.876 74.1826 51.676C74.1826 51.348 73.9706 50.456 73.5466 49L73.4866 48.76L74.8306 48.232C75.0226 48.784 75.1746 49.376 75.2866 50.008C75.3986 50.632 75.4546 51.188 75.4546 51.676C75.4546 52.46 75.1466 53.184 74.5306 53.848C73.9146 54.52 73.0866 55.072 72.0466 55.504L71.3146 53.992ZM76.3395 53.956C77.4595 53.716 78.3195 53.436 78.9195 53.116C79.5275 52.804 79.9235 52.424 80.1075 51.976C79.8915 52.008 79.6515 52.024 79.3875 52.024C78.8035 52.024 78.2755 51.924 77.8035 51.724C77.3395 51.516 77.0115 51.208 76.8195 50.8C76.6755 50.488 76.6035 50.144 76.6035 49.768C76.6035 49.296 76.7035 48.828 76.9035 48.364C77.1035 47.892 77.3795 47.508 77.7315 47.212C78.0835 46.908 78.4675 46.756 78.8835 46.756C79.3635 46.756 79.7995 46.964 80.1915 47.38C80.5835 47.796 80.8915 48.34 81.1155 49.012C81.3395 49.684 81.4515 50.384 81.4515 51.112C81.4515 52.232 81.0475 53.176 80.2395 53.944C79.4315 54.712 78.3155 55.232 76.8915 55.504L76.3395 53.956ZM77.9235 49.792C78.0435 49.952 78.2675 50.076 78.5955 50.164C78.9235 50.244 79.2915 50.284 79.6995 50.284C79.8915 50.284 80.0355 50.28 80.1315 50.272C80.0195 49.728 79.8355 49.272 79.5795 48.904C79.3315 48.536 79.0515 48.352 78.7395 48.352C78.5795 48.352 78.4275 48.412 78.2835 48.532C78.1475 48.652 78.0355 48.8 77.9475 48.976C77.8675 49.152 77.8275 49.316 77.8275 49.468C77.8275 49.596 77.8595 49.704 77.9235 49.792ZM85.1607 56.704C84.9527 54.488 84.8487 52.72 84.8487 51.4C84.8487 51.032 84.8527 50.768 84.8607 50.608C84.8767 50.152 85.0247 49.78 85.3047 49.492C85.5927 49.196 85.9487 49.048 86.3727 49.048C86.4367 49.048 86.5327 49.056 86.6607 49.072C86.9727 48.376 87.3367 47.832 87.7527 47.44C88.1767 47.048 88.6167 46.852 89.0727 46.852C89.5047 46.852 89.8847 46.992 90.2127 47.272C90.5407 47.544 90.7887 47.9 90.9567 48.34C91.1327 48.772 91.2207 49.228 91.2207 49.708C91.2207 50.18 91.1327 50.612 90.9567 51.004C90.7887 51.396 90.5367 51.692 90.2007 51.892C90.0167 52.004 89.8007 52.06 89.5527 52.06C89.2407 52.06 88.8367 51.968 88.3407 51.784C87.8447 51.592 87.2167 51.288 86.4567 50.872C86.4407 50.864 86.4207 50.86 86.3967 50.86C86.3407 50.86 86.3087 50.892 86.3007 50.956C86.2847 51.932 86.3887 53.592 86.6127 55.936L86.6487 56.368L85.1607 56.704ZM89.6007 50.428C89.7287 50.428 89.8287 50.364 89.9007 50.236C89.9727 50.108 90.0087 49.952 90.0087 49.768C90.0087 49.448 89.9207 49.152 89.7447 48.88C89.5687 48.6 89.3407 48.46 89.0607 48.46C88.7087 48.46 88.3127 48.864 87.8727 49.672C88.6887 50.176 89.2647 50.428 89.6007 50.428ZM90.7209 53.992C91.2489 53.776 91.7329 53.524 92.1729 53.236C92.6129 52.956 92.9569 52.676 93.2049 52.396C93.4609 52.116 93.5889 51.876 93.5889 51.676C93.5889 51.348 93.3769 50.456 92.9529 49L92.8929 48.76L94.2369 48.232C94.4289 48.784 94.5809 49.376 94.6929 50.008C94.8049 50.632 94.8609 51.188 94.8609 51.676C94.8609 52.46 94.5529 53.184 93.9369 53.848C93.3209 54.52 92.4929 55.072 91.4529 55.504L90.7209 53.992ZM93.3729 44.932C93.6129 45.18 93.8569 45.424 94.1049 45.664L94.4769 46.036C94.2929 46.22 94.2009 46.312 94.2009 46.312C93.7369 46.776 93.4609 47.056 93.3729 47.152L92.2569 46.036L93.3729 44.932ZM96.1178 51.928C96.1978 51.4 96.2378 50.584 96.2378 49.48C96.2378 48.376 96.2018 47.22 96.1298 46.012C96.0658 44.796 95.9898 43.944 95.9018 43.456L97.4018 43.108C97.4738 43.572 97.5378 44.384 97.5938 45.544C97.6498 46.704 97.6778 47.844 97.6778 48.964C97.6778 50.348 97.6298 51.388 97.5338 52.084L96.1178 51.928ZM98.7106 53.956C99.8066 53.716 100.659 53.44 101.267 53.128C101.875 52.824 102.275 52.452 102.467 52.012C101.587 51.996 100.875 51.908 100.331 51.748C99.7866 51.58 99.4066 51.264 99.1906 50.8C99.0466 50.488 98.9746 50.144 98.9746 49.768C98.9746 49.296 99.0746 48.828 99.2746 48.364C99.4746 47.892 99.7506 47.508 100.103 47.212C100.455 46.908 100.839 46.756 101.255 46.756C101.671 46.756 102.055 46.912 102.407 47.224C102.759 47.536 103.051 47.956 103.283 48.484C103.523 49.012 103.683 49.588 103.763 50.212H104.267L104.363 51.112L104.267 52H103.727C103.527 52.888 103.039 53.636 102.263 54.244C101.495 54.852 100.495 55.272 99.2626 55.504L98.7106 53.956ZM100.295 49.792C100.407 49.944 100.651 50.052 101.027 50.116C101.403 50.172 101.891 50.204 102.491 50.212C102.379 49.684 102.199 49.244 101.951 48.892C101.703 48.532 101.423 48.352 101.111 48.352C100.951 48.352 100.799 48.412 100.655 48.532C100.519 48.644 100.411 48.788 100.331 48.964C100.251 49.14 100.211 49.308 100.211 49.468C100.211 49.604 100.239 49.712 100.295 49.792ZM104.114 50.212H104.486C104.902 50.212 105.202 50.128 105.386 49.96C105.578 49.792 105.674 49.532 105.674 49.18C105.666 48.628 105.618 47.656 105.53 46.264C105.45 44.864 105.378 43.924 105.314 43.444L106.814 43.12C106.87 43.592 106.93 44.564 106.994 46.036C107.066 47.5 107.102 48.516 107.102 49.084C107.102 49.628 106.99 50.124 106.766 50.572C106.55 51.012 106.246 51.36 105.854 51.616C105.462 51.872 105.018 52 104.522 52H104.114V50.212ZM112.889 52.048C112.145 52.048 111.565 51.848 111.149 51.448C110.741 51.048 110.537 50.532 110.537 49.9C110.537 49.652 110.573 49.392 110.645 49.12C110.805 48.464 111.157 47.816 111.701 47.176L111.293 46.924L112.205 45.568C113.261 46.208 114.057 46.856 114.593 47.512C115.129 48.16 115.397 48.848 115.397 49.576C115.397 50.064 115.285 50.496 115.061 50.872C114.845 51.24 114.545 51.528 114.161 51.736C113.785 51.944 113.361 52.048 112.889 52.048ZM111.797 49.444C111.781 49.716 111.873 49.928 112.073 50.08C112.273 50.232 112.573 50.308 112.973 50.308C113.293 50.308 113.557 50.248 113.765 50.128C113.981 50.008 114.109 49.852 114.149 49.66C114.093 49.396 113.949 49.124 113.717 48.844C113.493 48.556 113.173 48.248 112.757 47.92C112.125 48.512 111.805 49.02 111.797 49.444ZM119.088 52C118.208 52 117.572 51.748 117.18 51.244C116.796 50.74 116.604 49.972 116.604 48.94C116.596 47.956 116.564 46.96 116.508 45.952C116.46 44.936 116.388 44.1 116.292 43.444L117.78 43.12C117.86 43.704 117.924 44.496 117.972 45.496C118.02 46.488 118.044 47.408 118.044 48.256V48.712C118.036 49.12 118.056 49.428 118.104 49.636C118.152 49.844 118.248 49.992 118.392 50.08C118.544 50.168 118.776 50.212 119.088 50.212H119.148L119.244 51.112L119.148 52H119.088ZM125.024 52C124.664 52 124.312 51.88 123.968 51.64C123.632 51.4 123.276 51.048 122.9 50.584C122.628 51.064 122.176 51.42 121.544 51.652C120.912 51.884 120.152 52 119.264 52H118.856V50.212H119.264C119.944 50.212 120.504 50.16 120.944 50.056C121.384 49.952 121.68 49.812 121.832 49.636C121.72 48.892 120.888 47.908 119.336 46.684L119.492 45.124L123.956 43.24L124.436 44.668L120.968 46.144C121.704 46.792 122.26 47.436 122.636 48.076C123.148 48.788 123.592 49.324 123.968 49.684C124.352 50.036 124.704 50.212 125.024 50.212H125.228L125.324 51.112L125.228 52H125.024ZM119.624 43.672L123.524 42.076L123.728 42.652L119.552 44.392L119.624 43.672ZM131.775 52C131.407 51.992 131.087 51.9 130.815 51.724C130.551 51.548 130.347 51.3 130.203 50.98C129.755 51.652 129.223 51.992 128.607 52H128.547C128.203 52 127.903 51.908 127.647 51.724C127.391 51.54 127.211 51.296 127.107 50.992C126.851 51.32 126.555 51.572 126.219 51.748C125.891 51.916 125.539 52 125.163 52H125.127L125.031 51.112L125.127 50.212H125.187C125.435 50.212 125.679 50.16 125.919 50.056C126.159 49.944 126.339 49.808 126.459 49.648C126.627 49.456 126.755 49.24 126.843 49C126.931 48.76 127.011 48.504 127.083 48.232L128.331 48.364C128.323 48.404 128.279 48.564 128.199 48.844C128.119 49.116 128.079 49.364 128.079 49.588C128.079 50.004 128.247 50.212 128.583 50.212H128.607C129.023 50.212 129.343 49.992 129.567 49.552C129.751 49.184 129.883 48.716 129.963 48.148L131.211 48.208C131.179 48.336 131.147 48.52 131.115 48.76C131.091 48.992 131.079 49.184 131.079 49.336C131.079 49.92 131.319 50.212 131.799 50.212H131.811C132.051 50.212 132.235 50.144 132.363 50.008C132.499 49.872 132.567 49.696 132.567 49.48C132.567 49.264 132.483 48.92 132.315 48.448C132.155 47.976 132.019 47.616 131.907 47.368L133.143 46.696C133.295 47.024 133.455 47.476 133.623 48.052C133.791 48.62 133.875 49.12 133.875 49.552C133.875 49.992 133.787 50.4 133.611 50.776C133.443 51.144 133.203 51.44 132.891 51.664C132.579 51.888 132.227 52 131.835 52H131.775ZM128.451 45.484C128.883 45.068 129.203 44.752 129.411 44.536L130.371 45.484L129.411 46.456L128.451 45.484ZM131.679 44.536C131.887 44.752 132.099 44.964 132.315 45.172L132.627 45.484L132.063 46.072C131.807 46.328 131.679 46.456 131.679 46.456L131.355 46.132C130.923 45.7 130.707 45.484 130.707 45.484L131.679 44.536ZM130.539 43.228C130.811 43.516 131.091 43.796 131.379 44.068L130.539 44.932L129.687 44.068L130.539 43.228ZM134.699 53.956C135.819 53.716 136.679 53.436 137.279 53.116C137.887 52.804 138.283 52.424 138.467 51.976C138.251 52.008 138.011 52.024 137.747 52.024C137.163 52.024 136.635 51.924 136.163 51.724C135.699 51.516 135.371 51.208 135.179 50.8C135.035 50.488 134.963 50.144 134.963 49.768C134.963 49.296 135.063 48.828 135.263 48.364C135.463 47.892 135.739 47.508 136.091 47.212C136.443 46.908 136.827 46.756 137.243 46.756C137.723 46.756 138.159 46.964 138.551 47.38C138.943 47.796 139.251 48.34 139.475 49.012C139.699 49.684 139.811 50.384 139.811 51.112C139.811 52.232 139.407 53.176 138.599 53.944C137.791 54.712 136.675 55.232 135.251 55.504L134.699 53.956ZM136.283 49.792C136.403 49.952 136.627 50.076 136.955 50.164C137.283 50.244 137.651 50.284 138.059 50.284C138.251 50.284 138.395 50.28 138.491 50.272C138.379 49.728 138.195 49.272 137.939 48.904C137.691 48.536 137.411 48.352 137.099 48.352C136.939 48.352 136.787 48.412 136.643 48.532C136.507 48.652 136.395 48.8 136.307 48.976C136.227 49.152 136.187 49.316 136.187 49.468C136.187 49.596 136.219 49.704 136.283 49.792ZM144.776 52C144.52 52 144.284 51.952 144.068 51.856C144.02 52.608 143.692 53.3 143.084 53.932C142.476 54.572 141.672 55.096 140.672 55.504L139.94 53.992C140.468 53.776 140.952 53.524 141.392 53.236C141.832 52.956 142.176 52.676 142.424 52.396C142.68 52.116 142.808 51.876 142.808 51.676C142.808 51.348 142.596 50.456 142.172 49L142.112 48.76L143.456 48.232C143.544 48.48 143.648 48.836 143.768 49.3C143.872 49.628 144 49.864 144.152 50.008C144.312 50.144 144.52 50.212 144.776 50.212H144.896L144.992 51.112L144.896 52H144.776ZM144.778 50.212H144.958C145.91 50.212 146.666 50.168 147.226 50.08C147.794 49.984 148.214 49.816 148.486 49.576C148.262 49.592 148.098 49.6 147.994 49.6C147.418 49.6 146.906 49.5 146.458 49.3C146.018 49.1 145.702 48.808 145.51 48.424C145.366 48.112 145.294 47.768 145.294 47.392C145.294 46.936 145.39 46.492 145.582 46.06C145.774 45.628 146.042 45.276 146.386 45.004C146.73 44.724 147.11 44.584 147.526 44.584C147.998 44.584 148.422 44.772 148.798 45.148C149.174 45.516 149.466 46.004 149.674 46.612C149.89 47.22 149.998 47.864 149.998 48.544C149.998 49.648 149.582 50.5 148.75 51.1C147.926 51.7 146.654 52 144.934 52H144.778V50.212ZM146.566 42.352C146.806 42.104 147.05 41.86 147.298 41.62C147.674 41.98 148.042 42.348 148.402 42.724C148.162 42.972 147.918 43.216 147.67 43.456L147.298 43.828L146.194 42.724L146.566 42.352ZM146.578 47.44C146.698 47.592 146.914 47.716 147.226 47.812C147.538 47.9 147.89 47.944 148.282 47.944C148.386 47.944 148.542 47.936 148.75 47.92C148.646 47.408 148.47 46.98 148.222 46.636C147.974 46.284 147.698 46.108 147.394 46.108C147.146 46.108 146.934 46.22 146.758 46.444C146.582 46.66 146.494 46.888 146.494 47.128C146.494 47.256 146.522 47.36 146.578 47.44Z" fill="#868686"/>
<defs>
<clipPath id="clip0_4003_13477">
<rect width="150" height="32" fill="white" transform="translate(0.242188)"/>
</clipPath>
</defs>
</svg>
